<svg id="Ebene_1" data-name="Ebene 1" xmlns="http://www.w3.org/2000/svg" xmlns:xlink="http://www.w3.org/1999/xlink" viewBox="0 0 1366 768"><defs><style>.cls-1{fill:#080825;}.cls-2{opacity:0.54;fill:url(#Unbenannter_Verlauf_19);}.cls-3{opacity:0.64;fill:url(#Unbenannter_Verlauf_21);}.cls-4{fill:url(#Unbenannter_Verlauf_26);}.cls-5{opacity:0.31;fill:url(#Unbenannter_Verlauf_19-2);}</style><radialGradient id="Unbenannter_Verlauf_19" cx="200.07" cy="58.5" r="641.65" gradientUnits="userSpaceOnUse"><stop offset="0" stop-color="#19197a"/><stop offset="1" stop-color="#080825" stop-opacity="0"/></radialGradient><radialGradient id="Unbenannter_Verlauf_21" cx="461" cy="813.54" r="399.69" gradientUnits="userSpaceOnUse"><stop offset="0" stop-color="#2d4f69"/><stop offset="1" stop-color="#080825" stop-opacity="0"/></radialGradient><radialGradient id="Unbenannter_Verlauf_26" cx="1183.7" cy="172.45" r="367.31" gradientUnits="userSpaceOnUse"><stop offset="0" stop-color="#39122f"/><stop offset="1" stop-color="#080825" stop-opacity="0"/></radialGradient><radialGradient id="Unbenannter_Verlauf_19-2" cx="953.5" cy="591.94" r="199.12" xlink:href="#Unbenannter_Verlauf_19"/></defs><title>web-bg</title><rect class="cls-1" width="1366" height="768"/><path class="cls-2" d="M861,94A620.5,620.5,0,0,1,715.76,493.86C601.48,630.26,429.87,717,238,717A623.84,623.84,0,0,1,71.65,694.55,617.4,617.4,0,0,1,0,669.92V0H854q.42,2.73.81,5.46A629,629,0,0,1,861,94Z"/><path class="cls-3" d="M864.85,768H57.15a404,404,0,0,1,14.5-73.45C121.38,526.56,276.88,404,461,404a404.28,404.28,0,0,1,254.76,89.86A406.22,406.22,0,0,1,864.85,768Z"/><path class="cls-4" d="M1366,0V491.06A364.72,364.72,0,0,1,1179.5,542q-12.42,0-24.65-.82c-109.86-7.29-206.49-63-268.73-146A366.79,366.79,0,0,1,854.76,5.46s0,0,0,0Q856.2,2.7,857.68,0Z"/><path class="cls-5" d="M1161,591.5A207.35,207.35,0,0,1,1062.66,768H844.34A207.47,207.47,0,0,1,953.5,384c97.25,0,178.87,66.9,201.35,157.18A207.63,207.63,0,0,1,1161,591.5Z"/></svg>